<svg xmlns="http://www.w3.org/2000/svg" xmlns:xlink="http://www.w3.org/1999/xlink" viewBox="0 0 101.78 87.69"><defs><style>.cls-1{isolation:isolate;}.cls-2{fill:url(#linear-gradient);}.cls-3{fill:#ff7c76;}.cls-4{fill:#9185e7;}.cls-10,.cls-4{opacity:0.5;}.cls-15,.cls-16,.cls-17,.cls-4{mix-blend-mode:multiply;}.cls-5{fill:url(#linear-gradient-2);}.cls-6{fill:url(#linear-gradient-3);}.cls-10,.cls-11,.cls-12,.cls-7,.cls-9{fill:#fff;}.cls-7{opacity:0.35;}.cls-10,.cls-11,.cls-7,.cls-9{mix-blend-mode:overlay;}.cls-8{mix-blend-mode:color-burn;fill:url(#linear-gradient-4);}.cls-9{opacity:0.25;}.cls-11{opacity:0.85;}.cls-13{fill:url(#linear-gradient-5);}.cls-14{fill:url(#linear-gradient-6);}.cls-15{fill:#9378c9;}.cls-16{fill:url(#linear-gradient-7);}.cls-17{fill:url(#linear-gradient-8);}.cls-18,.cls-20,.cls-22{opacity:0.55;mix-blend-mode:color-dodge;}.cls-18{fill:url(#radial-gradient);}.cls-19{fill:url(#linear-gradient-9);}.cls-20{fill:url(#radial-gradient-2);}.cls-21{fill:url(#linear-gradient-10);}.cls-22{fill:url(#radial-gradient-3);}.cls-23{fill:url(#linear-gradient-11);}.cls-24{fill:#391160;}.cls-25{fill:url(#linear-gradient-12);}</style><linearGradient id="linear-gradient" x1="12.98" y1="72.9" x2="27.7" y2="72.9" gradientUnits="userSpaceOnUse"><stop offset="0.01" stop-color="#f94e41"/><stop offset="0.12" stop-color="#f2483b"/><stop offset="0.68" stop-color="#d62e21"/><stop offset="1" stop-color="#cc2417"/></linearGradient><linearGradient id="linear-gradient-2" x1="-1020.84" y1="72.9" x2="-1006.12" y2="72.9" gradientTransform="matrix(-1, 0, 0, 1, -932.04, 0)" xlink:href="#linear-gradient"/><linearGradient id="linear-gradient-3" x1="17.71" y1="16.38" x2="159.64" y2="16.38" gradientUnits="userSpaceOnUse"><stop offset="0" stop-color="#55fbff"/><stop offset="0.34" stop-color="#3dcff3"/><stop offset="0.99" stop-color="#0b73db"/></linearGradient><linearGradient id="linear-gradient-4" x1="17.71" y1="18.55" x2="159.64" y2="18.55" gradientUnits="userSpaceOnUse"><stop offset="0" stop-color="#fff"/><stop offset="0.15" stop-color="#dfdfe5"/><stop offset="0.47" stop-color="#8f8ca2"/><stop offset="0.95" stop-color="#0f0939"/><stop offset="0.98" stop-color="#060032"/></linearGradient><linearGradient id="linear-gradient-5" x1="-5.06" y1="39.3" x2="96.05" y2="51.03" gradientUnits="userSpaceOnUse"><stop offset="0" stop-color="#998ce6"/><stop offset="0.3" stop-color="#ffe6dc"/><stop offset="0.41" stop-color="#f5dddd"/><stop offset="0.61" stop-color="#d9c4e0"/><stop offset="0.86" stop-color="#ab9ce4"/><stop offset="0.99" stop-color="#9185e7"/></linearGradient><linearGradient id="linear-gradient-6" y1="58.13" x2="101.78" y2="58.13" gradientUnits="userSpaceOnUse"><stop offset="0" stop-color="#7a35bc"/><stop offset="0.99" stop-color="#9185e7"/></linearGradient><linearGradient id="linear-gradient-7" x1="79.82" y1="71.12" x2="79.82" y2="48.87" gradientUnits="userSpaceOnUse"><stop offset="0" stop-color="#fff"/><stop offset="0.16" stop-color="#edeafa"/><stop offset="0.54" stop-color="#c5bcef"/><stop offset="0.83" stop-color="#ada0e8"/><stop offset="1" stop-color="#a496e5"/></linearGradient><linearGradient id="linear-gradient-8" x1="28.37" y1="47.24" x2="101.78" y2="47.24" xlink:href="#linear-gradient-7"/><radialGradient id="radial-gradient" cx="52.11" cy="52.63" r="4.06" gradientUnits="userSpaceOnUse"><stop offset="0" stop-color="#fff"/><stop offset="1"/></radialGradient><linearGradient id="linear-gradient-9" x1="52.11" y1="50.66" x2="52.11" y2="54.59" gradientUnits="userSpaceOnUse"><stop offset="0" stop-color="#55fbff"/><stop offset="0.23" stop-color="#53f8fe"/><stop offset="0.4" stop-color="#4eeffc"/><stop offset="0.55" stop-color="#46dff8"/><stop offset="0.68" stop-color="#3ac9f2"/><stop offset="0.81" stop-color="#2aacea"/><stop offset="0.92" stop-color="#178ae1"/><stop offset="0.99" stop-color="#0b73db"/></linearGradient><radialGradient id="radial-gradient-2" cx="13.53" cy="49.07" r="4.06" xlink:href="#radial-gradient"/><linearGradient id="linear-gradient-10" x1="13.53" y1="47.11" x2="13.53" y2="51.04" xlink:href="#linear-gradient-9"/><radialGradient id="radial-gradient-3" cx="86.72" cy="49.09" r="4.06" xlink:href="#radial-gradient"/><linearGradient id="linear-gradient-11" x1="86.72" y1="47.12" x2="86.72" y2="51.05" xlink:href="#linear-gradient-9"/><linearGradient id="linear-gradient-12" x1="48.35" y1="75.36" x2="55.17" y2="75.36" xlink:href="#linear-gradient"/></defs><title>Ativo 1</title><g class="cls-1"><g id="Camada_2" data-name="Camada 2"><g id="Layer_1" data-name="Layer 1"><path class="cls-2" d="M27.7,65.18a25.23,25.23,0,0,0-6.5,6.59A17.58,17.58,0,0,0,18.27,85a.91.91,0,0,1-1.7.61C14,80.93,11.34,73.64,14.25,66.31a20.21,20.21,0,0,1,4.27-6.54Z"/><path class="cls-3" d="M19.93,61.51,27,65.68c.43-.32.7-.5.7-.5l-9.16-5.41c-8.81,9.27-5.31,19.77-2,25.79a.87.87,0,0,0,.72.46C14.2,79.88,11.71,70.16,19.93,61.51Z"/><path class="cls-4" d="M27.7,65.18a25.23,25.23,0,0,0-6.5,6.59,39.81,39.81,0,0,0-6.95-5.46,20.21,20.21,0,0,1,4.27-6.54Z"/><path class="cls-5" d="M74.08,65.18a25.29,25.29,0,0,1,6.49,6.59A17.58,17.58,0,0,1,83.51,85a.91.91,0,0,0,1.69.61c2.58-4.63,5.24-11.92,2.33-19.25a20.09,20.09,0,0,0-4.28-6.54Z"/><path class="cls-3" d="M81.85,61.51l-7.06,4.17c-.43-.32-.71-.5-.71-.5l9.17-5.41c8.81,9.27,5.31,19.77,2,25.79a.88.88,0,0,1-.73.46C87.57,79.88,90.07,70.16,81.85,61.51Z"/><path class="cls-4" d="M74.08,65.18a25.29,25.29,0,0,1,6.49,6.59,40.2,40.2,0,0,1,7-5.46,20.09,20.09,0,0,0-4.28-6.54Z"/><path class="cls-6" d="M85,25.37c-8.68,5.58-21,7.33-33.05,7.36,0,0-1.13,0-1.13,0-9.3,0-18.8-1.09-26.65-4.16a34,34,0,0,1-6.41-3.22A14.67,14.67,0,0,1,18,23.59,27.1,27.1,0,0,1,19,20c2.55-7,10-18.62,31.79-19.91V0c.18,0,.37,0,.57,0a4.92,4.92,0,0,1,.56,0V.07A45.32,45.32,0,0,1,69.46,4.34C84.06,11.6,85,25.37,85,25.37Z"/><path class="cls-7" d="M78.43,25.08c-7.17,5-17.36,6.59-27.3,6.63h-.94c-9.94,0-20.14-1.62-27.31-6.64a13,13,0,0,1,.22-1.6c.92-5,5.44-19.78,27.09-21.17V2.24l.47,0c.15,0,.3,0,.47,0v.07a34.84,34.84,0,0,1,14.5,3.84A24.72,24.72,0,0,1,78.43,25.08Z"/><path class="cls-8" d="M85,25.37c-8.68,5.58-21,7.33-33.05,7.36,0,0-1.13,0-1.13,0-12,0-24.32-1.8-33-7.34l-.06,0A14.67,14.67,0,0,1,18,23.59C50.51,26.14,64,13.2,69.46,4.34a28.46,28.46,0,0,1,11.08,9.49A25.71,25.71,0,0,1,85,25.37Z"/><path class="cls-9" d="M28.69,11.44a6.07,6.07,0,0,0,1.55,7c1.95,1.63,4.89,2,7.61,1.94a28.72,28.72,0,0,0,13.51-3.76c2.92-1.69,5.63-4.38,5.16-7.38-.77-4.82-9-7-13.8-6.38C37.44,3.58,30.56,6.92,28.69,11.44Z"/><path class="cls-10" d="M31.21,11.16A4.22,4.22,0,0,0,32.28,16a8,8,0,0,0,5.27,1.34,20,20,0,0,0,9.36-2.61c2-1.16,3.89-3,3.56-5.1C50,6.31,44.26,4.79,40.92,5.23,37.27,5.72,32.5,8,31.21,11.16Z"/><path class="cls-11" d="M85,25.37c-8.68,5.58-21,7.33-33.05,7.36,0,0-1.13,0-1.13,0-12,0-24.32-1.8-33-7.34,2.55-.13,6.71,0,12.84.31,36.64,2.07,47.1-6,49.93-11.89A25.71,25.71,0,0,1,85,25.37Z"/><path class="cls-12" d="M44,6.41c.79,1.23-.21,3.07-2.22,4.12s-4.29.9-5.08-.34.2-3.07,2.21-4.12S43.15,5.18,44,6.41Z"/><path class="cls-12" d="M49.25,13c.27.72-.46,1.59-1.64,2S45.26,15,45,14.32s.47-1.59,1.64-1.94S49,12.31,49.25,13Z"/><path class="cls-13" d="M101.78,46.09l-4,3.71-1.87,1.74-7.75,7.18A42.32,42.32,0,0,1,61.24,70l-3.77.12c-2.08,0-4.28,0-6.58,0-3.75,0-7.23,0-10.37-.14a42.25,42.25,0,0,1-26.9-11.32L9.87,55.24,4,49.8,0,46.09s11.12-19,11.12-19a5.68,5.68,0,0,1,5.81-2.71c1.13.19,2.28.36,3.41.51,2.71.37,5.39.69,8,.92,2.18.21,4.33.38,6.47.48,5.32.29,10.5.36,15.44.27,0,0,1.22,0,1.22,0,2.82.07,5.74.07,8.73,0A177.87,177.87,0,0,0,80.93,25c1.3-.19,2.62-.38,3.92-.59a5.69,5.69,0,0,1,5.8,2.71l11.11,19Z"/><path class="cls-11" d="M14.72,25.39c1.2.19,2.43.36,3.64.51,2.87.37,5.73.69,8.54.92,2.32.21,4.62.38,6.9.48,5.66.29,11.18.36,16.44.27,0,0,1.3,0,1.3,0q4.51.11,9.3,0a201.68,201.68,0,0,0,22-1.57c1.38-.19,2.79-.38,4.17-.59a7,7,0,0,1,2.09,0,5.82,5.82,0,0,0-4.3-1.05c-1.3.21-2.62.4-3.92.59a177.87,177.87,0,0,1-20.7,1.57c-3,.07-5.91.07-8.73,0,0,0-1.22,0-1.22,0-4.94.11-10.12,0-15.44-.25-2.14-.1-4.29-.27-6.47-.48-2.64-.23-5.32-.55-8-.92-1.13-.15-2.28-.32-3.41-.51a5.81,5.81,0,0,0-4.31,1.05A7,7,0,0,1,14.72,25.39Z"/><path class="cls-9" d="M34.84,26.29l-.46,34.05L9.87,55.24,4,49.8,20.34,24.89c.65.08,1.3.19,1.95.25,1.76.23,3.5.44,5.24.59C30,26,32.43,26.17,34.84,26.29Z"/><path class="cls-11" d="M27.53,25.73,25,54.74l-16-3.83S19.62,32.77,23.48,25.37C25.24,25.61,25.79,25.58,27.53,25.73Z"/><path class="cls-14" d="M101.78,46.09,88.45,58.45l-1.19,1.11a39,39,0,0,1-23,10.29c-.44,0-.9.08-1.34.1-3.55.19-7.61.3-12,.23s-8.51,0-12-.23h-.08a38.29,38.29,0,0,1-14.23-3.62,38.66,38.66,0,0,1-10-6.77L9.45,54.85,0,46.09c1.3.31,3.12.84,5.53,1.45a162.58,162.58,0,0,0,29,4.33c4.1.27,8.57.42,13.38.42l2.37,0H51.5c4.63,0,8.92,0,12.92-.23a165.87,165.87,0,0,0,31-4.3c2.83-.69,5-1.29,6.39-1.67Z"/><path class="cls-15" d="M5.53,48.76a161.65,161.65,0,0,0,29,4.33c4.1.28,8.57.42,13.38.42l2.37,0H51.5c4.63,0,8.92,0,12.92-.23a166.92,166.92,0,0,0,31-4.29c1.83-.45,3.34-.86,4.59-1.19l1.82-1.69c-1.45.36-3.58,1-6.41,1.65A165.87,165.87,0,0,1,64.42,52c-4,.19-8.29.27-12.92.23H50.28l-2.37,0c-4.81,0-9.28-.15-13.38-.42a162.58,162.58,0,0,1-29-4.33C3.12,46.93,1.3,46.4,0,46.07c0,0,1.8,1.71,1.8,1.71C2.86,48.06,4.07,48.39,5.53,48.76Z"/><path class="cls-9" d="M38.76,70a38.29,38.29,0,0,1-14.23-3.62l-19-18.79a162.58,162.58,0,0,0,29,4.33Z"/><path class="cls-16" d="M95.37,47.74l-15.13,17a38.78,38.78,0,0,1-16,5.09L64.42,52A165.87,165.87,0,0,0,95.37,47.74Z"/><path class="cls-17" d="M101.78,46.09l-4,3.71-1.87,1.74-7.75,7.18A42.32,42.32,0,0,1,61.24,70l-3.77.12a33.7,33.7,0,0,0,7.64-16.28c2.27-15-20.51-23.75-36.74-28.07,2.18.21,4.33.38,6.47.48,5.32.29,10.5.36,15.44.27,0,0,1.22,0,1.22,0,2.82.07,5.74.07,8.73,0A177.87,177.87,0,0,0,80.93,25c1.3-.19,2.62-.38,3.92-.59a5.69,5.69,0,0,1,5.8,2.71l11.11,19Z"/><path class="cls-18" d="M56.17,52.63a4.06,4.06,0,1,1-4.06-4.06A4.06,4.06,0,0,1,56.17,52.63Z"/><circle class="cls-19" cx="52.11" cy="52.63" r="1.96"/><path class="cls-10" d="M52.69,53.77a1.21,1.21,0,1,1-.54-1.41A1.08,1.08,0,0,1,52.69,53.77Z"/><circle class="cls-20" cx="13.53" cy="49.07" r="4.06"/><circle class="cls-21" cx="13.53" cy="49.07" r="1.96"/><path class="cls-10" d="M14.11,50.21a1.08,1.08,0,0,1-1.49.24,1,1,0,1,1,1.49-.24Z"/><path class="cls-22" d="M90.78,49.09A4.06,4.06,0,1,1,86.72,45,4.06,4.06,0,0,1,90.78,49.09Z"/><path class="cls-23" d="M88.69,49.09a2,2,0,1,1-2-2A2,2,0,0,1,88.69,49.09Z"/><path class="cls-10" d="M87.31,50.22a1.2,1.2,0,1,1-.55-1.41A1.09,1.09,0,0,1,87.31,50.22Z"/><path class="cls-9" d="M88.45,58.45l-1.19,1.11a39,39,0,0,1-23,10.29c-.44,0-.9.08-1.34.1-3.55.19-7.61.3-12,.23s-8.51,0-12-.23h-.08a38.29,38.29,0,0,1-14.23-3.62,38.66,38.66,0,0,1-10-6.77L9.45,54.85c8.34,1.11,19.71,3.54,28.68,8.63C48.08,69.11,72.17,63.39,88.45,58.45Z"/><ellipse class="cls-24" cx="51.76" cy="64.96" rx="4.9" ry="3.06"/><path class="cls-25" d="M55.14,67,52.77,87.09a.66.66,0,0,1-.88.57.64.64,0,0,1-.46-.55l-3-20A3.41,3.41,0,0,1,51.52,63H52A3.39,3.39,0,0,1,55.14,67Z"/><path class="cls-4" d="M55.14,67,52.77,87.09a.66.66,0,0,1-.88.57c.55-5.41-.1-20.37-.37-24.64H52A3.39,3.39,0,0,1,55.14,67Z"/></g></g></g></svg>